<svg id="图层_1" data-name="图层 1" xmlns="http://www.w3.org/2000/svg" viewBox="0 0 13 20"><title>0</title><path id="Combined-Shape" d="M11.5,12.2a7,7,0,0,1-1.4,4.6,4.55,4.55,0,0,1-3.6,1.8,4.8,4.8,0,0,1-3.7-1.7,6.67,6.67,0,0,1-1.4-4.6v-5A7.21,7.21,0,0,1,2.8,2.7,4.65,4.65,0,0,1,6.5,1a4.8,4.8,0,0,1,3.7,1.7,6.67,6.67,0,0,1,1.4,4.6v4.9ZM9.1,7a5.13,5.13,0,0,0-.7-3A2.06,2.06,0,0,0,6.5,2.8,2.14,2.14,0,0,0,4.6,3.9,6.46,6.46,0,0,0,3.9,7v5.6a5.7,5.7,0,0,0,.7,3.1,2.06,2.06,0,0,0,1.9,1.1,2.14,2.14,0,0,0,1.9-1.1,6.46,6.46,0,0,0,.7-3.1Z" style="fill:#523435"/></svg>
