<svg id="图层_1" data-name="图层 1" xmlns="http://www.w3.org/2000/svg" viewBox="0 0 13 20"><title>3</title><path id="Path" d="M6.38,8.65a2.24,2.24,0,0,0,1.9-.79,3.43,3.43,0,0,0,.61-2.13,3.35,3.35,0,0,0-.62-2.09,2.12,2.12,0,0,0-1.8-.81,2.29,2.29,0,0,0-1.8.81A3,3,0,0,0,4,5.7H1.63l0-.07A4.2,4.2,0,0,1,3,2.33,4.89,4.89,0,0,1,6.47,1,4.93,4.93,0,0,1,10,2.23a4.57,4.57,0,0,1,1.31,3.52A4.12,4.12,0,0,1,10.69,8,4.05,4.05,0,0,1,9,9.5,4,4,0,0,1,10.89,11a4.63,4.63,0,0,1,.67,2.56,4.73,4.73,0,0,1-1.43,3.64,5.17,5.17,0,0,1-3.66,1.31,5.35,5.35,0,0,1-3.55-1.27,4.16,4.16,0,0,1-1.48-3.49l0-.08H3.78a3.24,3.24,0,0,0,.75,2.17,2.46,2.46,0,0,0,1.94.87,2.45,2.45,0,0,0,2-.86,3.44,3.44,0,0,0,.73-2.27,3.48,3.48,0,0,0-.71-2.39,2.65,2.65,0,0,0-2.07-.78H4.74V8.65Z" style="fill:#523435"/></svg>
