<svg id="图层_1" data-name="图层 1" xmlns="http://www.w3.org/2000/svg" viewBox="0 0 13 20"><title>5</title><path id="Path" d="M1.86,10.47,2.73,1H10.8V3H4.73L4.26,8.09a3.86,3.86,0,0,1,2.63-1,3.92,3.92,0,0,1,3.29,1.46,6.41,6.41,0,0,1,1.18,4.1,6.43,6.43,0,0,1-1.24,4.13,4.47,4.47,0,0,1-3.74,1.57A5,5,0,0,1,3,17.11a4.18,4.18,0,0,1-1.33-3.48l0-.06,2.26,0a3.25,3.25,0,0,0,.68,2.2,2.25,2.25,0,0,0,1.78.77,2.15,2.15,0,0,0,1.94-1A5.29,5.29,0,0,0,9,12.64,4.87,4.87,0,0,0,8.3,9.93a2.15,2.15,0,0,0-1.9-1,2.67,2.67,0,0,0-1.67.44,2.49,2.49,0,0,0-.8,1.31Z" style="fill:#523435"/></svg>
