<svg id="图层_1" data-name="图层 1" xmlns="http://www.w3.org/2000/svg" viewBox="0 0 13 20"><title>6</title><path id="Combined-Shape" d="M7.1,1a8.81,8.81,0,0,1,1.7.2,8.8,8.8,0,0,1,1.5.5L9.8,3.5A5,5,0,0,0,8.5,3a6.75,6.75,0,0,0-1.4-.2A2.67,2.67,0,0,0,4.8,4.1a6.05,6.05,0,0,0-.9,3.5V9A4.43,4.43,0,0,1,5.4,7.8a4.21,4.21,0,0,1,2-.4,3.62,3.62,0,0,1,3.1,1.5,6.78,6.78,0,0,1,1.1,4A6,6,0,0,1,10.2,17a4.68,4.68,0,0,1-3.6,1.6,4.59,4.59,0,0,1-3.7-1.8,7.34,7.34,0,0,1-1.4-4.9V7.8A7.23,7.23,0,0,1,3.1,2.9,5,5,0,0,1,7.1,1ZM6.5,9.1a2.77,2.77,0,0,0-1.6.5,2.94,2.94,0,0,0-1,1.2V12a7,7,0,0,0,.8,3.5,2.42,2.42,0,0,0,2,1.3,2.26,2.26,0,0,0,1.9-1.1,4.86,4.86,0,0,0,.7-2.8,4.15,4.15,0,0,0-.7-2.7A2.75,2.75,0,0,0,6.5,9.1Z" style="fill:#523435"/></svg>
