<svg id="图层_1" data-name="图层 1" xmlns="http://www.w3.org/2000/svg" viewBox="0 0 13 20"><title>8</title><path id="Combined-Shape" d="M11.21,5.61A4.11,4.11,0,0,1,8.74,9.46a4.7,4.7,0,0,1,2.13,1.63,4.16,4.16,0,0,1,.8,2.54,4.65,4.65,0,0,1-1.42,3.64,5.2,5.2,0,0,1-3.64,1.28,5.57,5.57,0,0,1-3.8-1.28,4.56,4.56,0,0,1-1.48-3.64,4.12,4.12,0,0,1,.82-2.55A4.79,4.79,0,0,1,4.37,9.46,4.22,4.22,0,0,1,2.49,7.94a4.09,4.09,0,0,1-.68-2.33A4.33,4.33,0,0,1,3.14,2.19,5,5,0,0,1,6.6,1,4.69,4.69,0,0,1,9.92,2.19,4.41,4.41,0,0,1,11.21,5.61Zm-1.94,8a3.39,3.39,0,0,0-.77-2.29,2.41,2.41,0,0,0-1.9-.89,2.65,2.65,0,0,0-2,.89,3.27,3.27,0,0,0-.81,2.29,3.26,3.26,0,0,0,.81,2.32,2.72,2.72,0,0,0,2.06.86,2.43,2.43,0,0,0,1.91-.87A3.4,3.4,0,0,0,9.27,13.57ZM8.8,5.65a3.24,3.24,0,0,0-.62-2A2,2,0,0,0,6.6,2.83a2.2,2.2,0,0,0-1.73.75,3.06,3.06,0,0,0-.66,2.07,3.14,3.14,0,0,0,.67,2.11,2.18,2.18,0,0,0,1.73.8,1.92,1.92,0,0,0,1.58-.8A3.35,3.35,0,0,0,8.8,5.65Z" style="fill:#523435"/></svg>
