<svg id="图层_1" data-name="图层 1" xmlns="http://www.w3.org/2000/svg" viewBox="0 0 13 20"><title>9</title><path id="Combined-Shape" d="M6,16.75a2.62,2.62,0,0,0,2.2-1.12,5.23,5.23,0,0,0,.84-3.16V10.83A3.59,3.59,0,0,1,7.8,12.09a3.29,3.29,0,0,1-1.66.43A4.14,4.14,0,0,1,2.74,11,6.41,6.41,0,0,1,1.5,6.85,6.27,6.27,0,0,1,2.89,2.66,4.36,4.36,0,0,1,6.39,1a4.68,4.68,0,0,1,3.7,1.64A6.85,6.85,0,0,1,11.5,7.25V12.4A6.36,6.36,0,0,1,10,16.92,5.14,5.14,0,0,1,6,18.55a7.86,7.86,0,0,1-1.65-.18,7,7,0,0,1-1.56-.55l.38-1.73a5.34,5.34,0,0,0,1.33.51A6.67,6.67,0,0,0,6,16.75Zm.35-6A2.64,2.64,0,0,0,8,10.23a3.28,3.28,0,0,0,1-1.33v-2a5.3,5.3,0,0,0-.71-3,2.25,2.25,0,0,0-1.95-1A2.07,2.07,0,0,0,4.62,4a5.38,5.38,0,0,0-.7,2.87,5.5,5.5,0,0,0,.64,2.82A2,2,0,0,0,6.39,10.75Z" style="fill:#523435"/></svg>
